<svg xmlns="http://www.w3.org/2000/svg" viewBox="0 0 24 24">
  <defs>
    <linearGradient id="instagram-gradient" x1="2" x2="22" y1="22" y2="2" gradientUnits="userSpaceOnUse">
      <stop offset="0" stop-color="#F58529"/>
      <stop offset=".35" stop-color="#DD2A7B"/>
      <stop offset=".7" stop-color="#8134AF"/>
      <stop offset="1" stop-color="#515BD4"/>
    </linearGradient>
  </defs>
  <rect width="24" height="24" rx="6" fill="url(#instagram-gradient)"/>
  <path fill="#fff" d="M12 7.35A4.65 4.65 0 1 0 12 16.65 4.65 4.65 0 0 0 12 7.35Zm0 7.68A3.03 3.03 0 1 1 12 8.97a3.03 3.03 0 0 1 0 6.06Z"/>
  <path fill="#fff" d="M16.82 7.16a1.09 1.09 0 1 1-2.18 0 1.09 1.09 0 0 1 2.18 0Z"/>
  <path fill="#fff" d="M12 4.5c2.04 0 2.28.01 3.08.04.8.04 1.35.17 1.83.36.5.19.92.45 1.34.87.42.42.68.84.87 1.34.19.48.32 1.03.36 1.83.03.8.04 1.04.04 3.08s-.01 2.28-.04 3.08c-.04.8-.17 1.35-.36 1.83-.19.5-.45.92-.87 1.34-.42.42-.84.68-1.34.87-.48.19-1.03.32-1.83.36-.8.03-1.04.04-3.08.04s-2.28-.01-3.08-.04c-.8-.04-1.35-.17-1.83-.36a3.7 3.7 0 0 1-1.34-.87 3.7 3.7 0 0 1-.87-1.34c-.19-.48-.32-1.03-.36-1.83-.03-.8-.04-1.04-.04-3.08s.01-2.28.04-3.08c.04-.8.17-1.35.36-1.83.19-.5.45-.92.87-1.34.42-.42.84-.68 1.34-.87.48-.19 1.03-.32 1.83-.36.8-.03 1.04-.04 3.08-.04Zm0 1.64c-2 0-2.23.01-3.01.04-.72.03-1.11.15-1.37.25-.35.14-.6.3-.86.56-.26.26-.42.51-.56.86-.1.26-.22.65-.25 1.37-.03.78-.04 1.01-.04 3.01s.01 2.23.04 3.01c.03.72.15 1.11.25 1.37.14.35.3.6.56.86.26.26.51.42.86.56.26.1.65.22 1.37.25.78.03 1.01.04 3.01.04s2.23-.01 3.01-.04c.72-.03 1.11-.15 1.37-.25.35-.14.6-.3.86-.56.26-.26.42-.51.56-.86.1-.26.22-.65.25-1.37.03-.78.04-1.01.04-3.01s-.01-2.23-.04-3.01c-.03-.72-.15-1.11-.25-1.37-.14-.35-.3-.6-.56-.86-.26-.26-.51-.42-.86-.56-.26-.1-.65-.22-1.37-.25-.78-.03-1.01-.04-3.01-.04Z"/>
</svg>
