<svg xmlns="http://www.w3.org/2000/svg" viewBox="0 0 24 24">
  <path fill="#25D366" d="M12.04 2C6.58 2 2.13 6.45 2.13 11.91c0 1.75.46 3.45 1.33 4.96L2.05 22l5.25-1.38a9.9 9.9 0 0 0 4.74 1.21h.01c5.46 0 9.91-4.45 9.91-9.91A9.88 9.88 0 0 0 12.04 2Z"/>
  <path fill="#fff" d="M17.8 14.48c-.25-.13-1.49-.73-1.72-.82-.23-.08-.4-.13-.57.13-.17.25-.65.82-.8.98-.15.17-.29.19-.54.06-.25-.13-1.06-.39-2.02-1.25-.75-.67-1.25-1.49-1.4-1.74-.15-.25-.02-.39.11-.52.12-.12.25-.29.38-.44.13-.15.17-.25.25-.42.08-.17.04-.31-.02-.44-.06-.13-.57-1.37-.78-1.88-.2-.49-.41-.42-.57-.43h-.48c-.17 0-.44.06-.67.31-.23.25-.88.86-.88 2.1s.9 2.43 1.03 2.6c.13.17 1.77 2.7 4.29 3.79.6.26 1.07.41 1.43.53.6.19 1.15.16 1.58.1.48-.07 1.49-.61 1.7-1.2.21-.59.21-1.09.15-1.2-.06-.1-.23-.16-.48-.29Z"/>
</svg>
